<svg width="80" height="13" viewBox="0 0 80 13" fill="none" xmlns="http://www.w3.org/2000/svg">
<path d="M12.3178 0L7.9478 6.14008L4.32192 1.06602V7.17532L7.23762 11.147H8.641L11.5553 7.18511V12.6733H15.1274V0H12.3178Z" fill="#6912AA"/>
<path d="M3.53676 3.33095H0V12.6509H3.53676V3.33095Z" fill="#6912AA"/>
<path d="M3.53676 0.0279794H0V2.35866H3.53676V0.0279794Z" fill="#FED518"/>
<path d="M20.8371 10.7721H18.5241V1.92498H20.8371V10.7721Z" fill="black"/>
<path d="M22.0368 10.7721V1.92498H24.3003V3.15747C24.7771 2.29851 25.8424 1.67876 27.1057 1.67876C28.0268 1.66148 28.9174 2.00551 29.5828 2.63566C30.2548 3.26799 30.6 4.17453 30.6 5.36085V10.7721H28.294V5.9806C28.294 4.56904 27.5386 3.78981 26.4068 3.78981C25.1775 3.78981 24.3569 4.71453 24.3569 6.02816V10.7721H22.0368Z" fill="black"/>
<path d="M40.4916 7.14734H33.7831C34.1099 8.39662 34.9799 9.02895 36.3904 9.02895C37.4177 9.00178 38.4172 8.69329 39.2778 8.13781L40.1959 9.74243C39.0624 10.5553 37.6928 10.9824 36.2928 10.9595C34.7168 10.9595 33.52 10.5049 32.6839 9.61372C31.8478 8.72258 31.4375 7.61879 31.4375 6.33733C31.4375 4.99013 31.8619 3.88774 32.7334 3.01198C33.6048 2.13623 34.714 1.69835 36.0947 1.69835C37.3906 1.69835 38.4742 2.10405 39.3103 2.89867C40.1464 3.69328 40.5737 4.76349 40.5737 6.14288C40.5683 6.4791 40.5409 6.81462 40.4916 7.14734ZM33.7831 5.44479H38.3257C38.1121 4.29344 37.276 3.59535 36.0947 3.59535C34.9134 3.59535 34.0618 4.29344 33.7831 5.44479Z" fill="black"/>
<path d="M55.0093 2.67063C55.6982 3.33654 56.042 4.24447 56.042 5.428V10.7721H53.729V5.85049C53.729 4.50328 53.0075 3.78981 51.9422 3.78981C50.7765 3.78981 49.9729 4.618 49.9729 5.91484V10.7721H47.6613V5.87567C47.6613 4.56204 46.954 3.7996 45.8562 3.7996C44.7244 3.7996 43.9039 4.62779 43.9039 5.94143V10.7721H41.5922V1.92498H43.8558V3.18406C44.1292 2.71306 44.5269 2.32428 45.0062 2.05918C45.4856 1.79409 46.0287 1.66261 46.5777 1.67876C47.6939 1.67876 48.7266 2.21457 49.2019 3.23582C49.8584 2.26633 51.0708 1.67876 52.4006 1.67876C53.4673 1.67876 54.3359 2.00612 55.0093 2.67063Z" fill="black"/>
<path d="M58.406 3.04416C59.3086 2.1339 60.4568 1.67876 61.8508 1.67876C63.2447 1.67876 64.3925 2.13296 65.2942 3.04136C65.7337 3.47048 66.0799 3.98401 66.3113 4.55036C66.5426 5.11671 66.6544 5.72389 66.6395 6.33454C66.6395 7.64817 66.1967 8.75056 65.2942 9.6431C64.3916 10.5356 63.2443 10.9889 61.8508 10.9889C60.4573 10.9889 59.3043 10.5356 58.406 9.6431C57.5076 8.75056 57.0606 7.64817 57.0606 6.33454C57.0462 5.72436 57.1581 5.11771 57.3895 4.55187C57.6208 3.98603 57.9668 3.47295 58.406 3.04416ZM61.8508 8.86667C62.1786 8.87408 62.5043 8.81299 62.8066 8.68739C63.1089 8.56179 63.3809 8.37452 63.605 8.13781C64.075 7.65448 64.3342 7.00785 64.3265 6.33733C64.3319 6.00735 64.271 5.67958 64.1471 5.37312C64.0232 5.06666 63.839 4.78762 63.605 4.55225C63.3811 4.31533 63.1091 4.12791 62.8067 4.0023C62.5044 3.87668 62.1786 3.81571 61.8508 3.82338C61.5202 3.8156 61.1917 3.87645 60.8863 4.00199C60.581 4.12753 60.3057 4.31498 60.0782 4.55225C59.8461 4.78831 59.664 5.06778 59.5426 5.3743C59.4211 5.68082 59.3627 6.00822 59.3708 6.33733C59.3577 7.00618 59.6119 7.65315 60.0782 8.13781C60.3059 8.37479 60.5813 8.56206 60.8865 8.68758C61.1918 8.8131 61.5203 8.87411 61.8508 8.86667Z" fill="black"/>
<path d="M67.8831 10.7721V1.92498H70.1466V3.15747C70.6219 2.29851 71.6872 1.67876 72.9505 1.67876C73.8717 1.66133 74.7624 2.00538 75.4277 2.63566C76.0997 3.26799 76.4448 4.17453 76.4448 5.36085V10.7721H74.1304V5.9806C74.1304 4.56904 73.3764 3.78981 72.2446 3.78981C71.0138 3.78981 70.1933 4.71453 70.1933 6.02816V10.7721H67.8831Z" fill="black"/>
<path d="M80 10.7721H77.687V1.92498H80V10.7721Z" fill="black"/>
</svg>
